<svg xmlns="http://www.w3.org/2000/svg" width="70.021" height="15.059" viewBox="0 0 70.021 15.059"><title>Stereo</title><path d="M4.942,22.85l1.325-2.2a6,6,0,0,0,1.822,1.125,5.637,5.637,0,0,0,2.187.481,2.587,2.587,0,0,0,1.449-.333,1.035,1.035,0,0,0,.491-.9.72.72,0,0,0-.382-.62,2.9,2.9,0,0,0-.988-.372L9.51,19.755a14.515,14.515,0,0,1-1.46-.386,6.253,6.253,0,0,1-1.336-.6,2.767,2.767,0,0,1-.985-1.037,3.206,3.206,0,0,1-.38-1.6,3.263,3.263,0,0,1,1.267-2.6,5.268,5.268,0,0,1,3.485-1.06,7.261,7.261,0,0,1,4.658,1.582l-1.231,2.168a4.284,4.284,0,0,0-1.48-.961,5.015,5.015,0,0,0-1.947-.387,2.355,2.355,0,0,0-1.314.326.967.967,0,0,0-.5.832.633.633,0,0,0,.281.524,1.98,1.98,0,0,0,.768.32l1.105.243c.412.091.834.185,1.265.279a6.364,6.364,0,0,1,1.265.426,5.942,5.942,0,0,1,1.107.651,2.608,2.608,0,0,1,.782,1,3.449,3.449,0,0,1,.294,1.465,3.221,3.221,0,0,1-1.34,2.672,5.917,5.917,0,0,1-3.692,1.031,8.721,8.721,0,0,1-2.891-.48A6.471,6.471,0,0,1,4.942,22.85Z" transform="translate(-4.942 -9.596)"/><path d="M16.083,15.432V12.771h1.922V9.6h3.047v3.175h2.355v2.661H21.052v5.214a1.471,1.471,0,0,0,.281.926.925.925,0,0,0,.773.364,1.929,1.929,0,0,0,.633-.106.975.975,0,0,0,.434-.258l.644,2.332a3.7,3.7,0,0,1-2.543.75,3.349,3.349,0,0,1-2.431-.814,3.177,3.177,0,0,1-.838-2.385V15.432Z" transform="translate(-4.942 -9.596)"/><path d="M24.755,18.549a6.234,6.234,0,0,1,.762-3.059,5.7,5.7,0,0,1,2.144-2.2,5.981,5.981,0,0,1,3.094-.814,5.4,5.4,0,0,1,4.2,1.763,6.585,6.585,0,0,1,1.6,4.6v.715H27.942a2.908,2.908,0,0,0,1.043,1.863,3.453,3.453,0,0,0,2.3.738,5.014,5.014,0,0,0,1.658-.31,3.777,3.777,0,0,0,1.413-.827l1.359,2.016a5.769,5.769,0,0,1-2.115,1.2,8.357,8.357,0,0,1-2.655.422,6.145,6.145,0,0,1-4.435-1.681A5.852,5.852,0,0,1,24.755,18.549Zm3.164-1.1h5.707a2.683,2.683,0,0,0-.211-.855,3.029,3.029,0,0,0-.5-.785,2.262,2.262,0,0,0-.885-.6,3.377,3.377,0,0,0-1.277-.228,3.179,3.179,0,0,0-1.219.222,2.335,2.335,0,0,0-.867.592,3.094,3.094,0,0,0-.516.785A2.81,2.81,0,0,0,27.919,17.447Z" transform="translate(-4.942 -9.596)"/><path d="M38.759,24.361V12.771h3.047V14.33a5.465,5.465,0,0,1,1.67-1.324,4.315,4.315,0,0,1,2.033-.527v2.976a4.039,4.039,0,0,0-.844-.07,3.916,3.916,0,0,0-1.629.392,2.959,2.959,0,0,0-1.23.932v7.652Z" transform="translate(-4.942 -9.596)"/><path d="M46.657,18.549a6.234,6.234,0,0,1,.762-3.059,5.711,5.711,0,0,1,2.144-2.2,5.984,5.984,0,0,1,3.094-.814,5.4,5.4,0,0,1,4.2,1.763,6.581,6.581,0,0,1,1.6,4.6v.715H49.845a2.9,2.9,0,0,0,1.043,1.863,3.451,3.451,0,0,0,2.3.738,5.023,5.023,0,0,0,1.658-.31,3.773,3.773,0,0,0,1.412-.827l1.359,2.016a5.752,5.752,0,0,1-2.115,1.2,8.351,8.351,0,0,1-2.654.422,6.148,6.148,0,0,1-4.436-1.681A5.852,5.852,0,0,1,46.657,18.549Zm3.164-1.1h5.707a2.657,2.657,0,0,0-.211-.855,3.029,3.029,0,0,0-.5-.785,2.258,2.258,0,0,0-.884-.6,3.378,3.378,0,0,0-1.278-.228,3.179,3.179,0,0,0-1.219.222,2.335,2.335,0,0,0-.867.592,3.117,3.117,0,0,0-.515.785A2.84,2.84,0,0,0,49.821,17.447Z" transform="translate(-4.942 -9.596)"/><path d="M60.642,21.59a6.463,6.463,0,0,1-.719-3.041,6.389,6.389,0,0,1,.719-3.029,5.528,5.528,0,0,1,2.127-2.2,6.777,6.777,0,0,1,6.525,0,5.53,5.53,0,0,1,2.133,2.2,6.4,6.4,0,0,1,.719,3.029,6.475,6.475,0,0,1-.719,3.041,5.552,5.552,0,0,1-2.133,2.221,6.735,6.735,0,0,1-6.525,0A5.55,5.55,0,0,1,60.642,21.59Zm2.421-3.041a3.7,3.7,0,0,0,.793,2.408,2.639,2.639,0,0,0,2.166.979,2.675,2.675,0,0,0,2.184-.973,3.682,3.682,0,0,0,.8-2.414,3.625,3.625,0,0,0-.8-2.385,2.682,2.682,0,0,0-2.184-.967,2.653,2.653,0,0,0-2.166.967A3.637,3.637,0,0,0,63.063,18.549Z" transform="translate(-4.942 -9.596)"/><path d="M73.063,24.2a1,1,0,0,1,0-1.482,1.134,1.134,0,0,1,1.571,0,1,1,0,0,1,0,1.482,1.137,1.137,0,0,1-1.571,0Z" transform="translate(-4.942 -9.596)" fill="#e00000"/><polygon points="59.958 6.904 62.958 8.904 59.958 10.904 59.958 6.904"/></svg>
