<?xml version="1.0" encoding="UTF-8"?><svg version="1.1" id="Layer_1" xmlns="http://www.w3.org/2000/svg" xmlns:xlink="http://www.w3.org/1999/xlink" x="0px" y="0px" viewBox="0 0 1000 1000" style="enable-background:new 0 0 1000 1000;" xml:space="preserve" width="1000px" height="1000px">

<path d="M233.8,654.2l-7.1-6.7c-1.9-1.9-2.9-4.4-2.9-7.1v-93.8c-0.1-3.1,1.3-6,3.8-7.8l6.2-4.2V654.2z" style="fill:#D6925B;stroke:#D6925B;stroke-width:6;stroke-miterlimit:10;"/>
<g>
	<path d="M233.8,644.2c-0.7,0-1.5-0.3-2-0.8l-7.1-6.7c-2.5-2.5-3.9-5.9-3.8-9.3l0-93.7c-0.1-4,1.7-7.8,5-10.2
		c0,0,0.1-0.1,0.1-0.1l6.2-4.2c0.9-0.6,2.1-0.7,3.1-0.2c1,0.5,1.6,1.5,1.6,2.6v119.5c0,1.2-0.7,2.3-1.8,2.8
		C234.6,644.1,234.2,644.2,233.8,644.2z M229.3,528.3c-1.6,1.2-2.6,3.2-2.5,5.3l0,93.9c0,1.9,0.7,3.7,2,5l2,1.9v-107L229.3,528.3z" style="fill:#1F3250;"/>
</g>
<path d="M659.9,700.2H339.6c-4.4,0-8-3.6-8-8c0-0.6,0.1-1.1,0.2-1.7l17.3-82c0.8-3.7,4-6.3,7.8-6.3h285.7
	c3.8,0,7,2.6,7.8,6.3l17.3,82c0.9,4.3-1.9,8.6-6.2,9.5C661,700.2,660.4,700.2,659.9,700.2z" style="fill:#D6925B;stroke:#D6925B;stroke-width:6;stroke-miterlimit:10;"/>
<path d="M245.8,333.8h508c6.6,0,12,5.4,12,12v330c0,6.6-5.4,12-12,12h-508c-6.6,0-12-5.4-12-12v-330
	C233.8,339.1,239.1,333.8,245.8,333.8z" style="fill:#D6925B;stroke:#D6925B;stroke-width:6;stroke-miterlimit:10;"/>
<path d="M765.8,648l7.1-6.7c1.9-1.9,2.9-4.4,2.9-7.1v-93.8c0.1-3.1-1.3-6-3.8-7.8l-6.2-4.2V648z" style="fill:#D6925B;stroke:#D6925B;stroke-width:6;stroke-miterlimit:10;"/>
<g>
	<path d="M765.7,638c-0.4,0-0.8-0.1-1.2-0.2c-1.1-0.5-1.8-1.6-1.8-2.8V515.5c0-1.1,0.6-2.1,1.6-2.6
		c1-0.5,2.2-0.5,3.1,0.2l6.2,4.2c0,0,0.1,0.1,0.1,0.1c3.3,2.4,5.1,6.3,5,10.3l0,93.7c0.1,3.4-1.3,6.8-3.7,9.2l-7.2,6.7
		C767.2,637.7,766.5,638,765.7,638z M768.8,521.1v107l2.1-2c1.2-1.2,1.9-3,1.9-4.8l0-93.8c0.1-2.2-0.9-4.1-2.5-5.4L768.8,521.1z" style="fill:#1F3250;"/>
</g>
<path d="M765.8,628l7.1-6.7c1.9-1.9,2.9-4.4,2.9-7.1v-93.8c0.1-3.1-1.3-6-3.8-7.8l-6.2-4.2V628z" style="fill:#0C776D;"/>
<g>
	<path d="M765.7,631c-0.4,0-0.8-0.1-1.2-0.2c-1.1-0.5-1.8-1.6-1.8-2.8V508.5c0-1.1,0.6-2.1,1.6-2.6
		c1-0.5,2.2-0.5,3.1,0.2l6.2,4.2c0,0,0.1,0.1,0.1,0.1c3.3,2.4,5.1,6.3,5,10.3l0,93.7c0.1,3.4-1.3,6.8-3.7,9.2l-7.2,6.7
		C767.2,630.7,766.5,631,765.7,631z M768.8,514.1v107l2.1-2c1.2-1.2,1.9-3,1.9-4.8l0-93.8c0.1-2.2-0.9-4.1-2.5-5.4L768.8,514.1z" style="fill:#1F3250;"/>
</g>
<path d="M245.8,308.8h508c6.6,0,12,5.4,12,12v330c0,6.6-5.4,12-12,12h-508c-6.6,0-12-5.4-12-12v-330
	C233.8,314.1,239.1,308.8,245.8,308.8z" style="fill:#1F3250;stroke:#1F3250;stroke-width:6;stroke-linecap:round;stroke-linejoin:round;"/>
<path d="M659.9,676.2H339.6c-4.4,0-8-3.6-8-8c0-0.6,0.1-1.1,0.2-1.7l17.3-82c0.8-3.7,4-6.3,7.8-6.3h285.7
	c3.8,0,7,2.6,7.8,6.3l17.3,82c0.9,4.3-1.9,8.6-6.2,9.5C661,676.2,660.4,676.2,659.9,676.2z" style="fill:#1F3250;stroke:#1F3250;stroke-width:6;stroke-linecap:round;stroke-linejoin:round;"/>
<g>
	<path d="M753.8,656.8h-508c-8.3,0-15-6.7-15-15v-330c0-8.3,6.7-15,15-15h508c8.3,0,15,6.7,15,15v330
		C768.8,650,762,656.8,753.8,656.8z M245.8,302.8c-5,0-9,4-9,9v330c0,5,4,9,9,9h508c5,0,9-4,9-9v-330c0-5-4-9-9-9H245.8z" style="fill:#5C290C;"/>
</g>
<path d="M245.8,299.8h508c6.6,0,12,5.4,12,12v330c0,6.6-5.4,12-12,12h-508c-6.6,0-12-5.4-12-12v-330
	C233.8,305.1,239.1,299.8,245.8,299.8z" style="fill:#0F8E85;"/>
<circle cx="265.4" cy="328.5" r="15.2" style="fill:#0C776D;"/>
<circle cx="265.4" cy="328.5" r="10.5" style="fill:#BEEDC4;"/>
<g>
	<path d="M265.4,341c-6.9,0-12.5-5.6-12.5-12.5s5.6-12.5,12.5-12.5s12.5,5.6,12.5,12.5S272.3,341,265.4,341z M265.4,320
		c-4.7,0-8.5,3.8-8.5,8.5s3.8,8.5,8.5,8.5s8.5-3.8,8.5-8.5S270.1,320,265.4,320z" style="fill:#1F3250;"/>
</g>
<g>
	<path d="M269.2,334.3c-0.5,0-1-0.2-1.4-0.6l-7.6-7.6c-0.8-0.8-0.8-2,0-2.8c0.8-0.8,2-0.8,2.8,0l7.6,7.6
		c0.8,0.8,0.8,2,0,2.8C270.3,334.1,269.8,334.3,269.2,334.3z" style="fill:#1F3250;"/>
</g>
<g>
	<path d="M261.6,334.3c-0.5,0-1-0.2-1.4-0.6c-0.8-0.8-0.8-2,0-2.8l7.6-7.6c0.8-0.8,2-0.8,2.8,0c0.8,0.8,0.8,2,0,2.8
		l-7.6,7.6C262.7,334.1,262.2,334.3,261.6,334.3z" style="fill:#1F3250;"/>
</g>
<circle cx="734.1" cy="328.5" r="15.2" style="fill:#0C776D;"/>
<circle cx="734.1" cy="328.5" r="10.5" style="fill:#BEEDC4;"/>
<g>
	<path d="M734.1,341c-6.9,0-12.5-5.6-12.5-12.5s5.6-12.5,12.5-12.5s12.5,5.6,12.5,12.5S740.9,341,734.1,341z M734.1,320
		c-4.7,0-8.5,3.8-8.5,8.5s3.8,8.5,8.5,8.5s8.5-3.8,8.5-8.5S738.7,320,734.1,320z" style="fill:#1F3250;"/>
</g>
<g>
	<path d="M737.9,334.3c-0.5,0-1-0.2-1.4-0.6l-7.6-7.6c-0.8-0.8-0.8-2,0-2.8s2-0.8,2.8,0l7.6,7.6c0.8,0.8,0.8,2,0,2.8
		C738.9,334.1,738.4,334.3,737.9,334.3z" style="fill:#1F3250;"/>
</g>
<g>
	<path d="M730.3,334.3c-0.5,0-1-0.2-1.4-0.6c-0.8-0.8-0.8-2,0-2.8l7.6-7.6c0.8-0.8,2-0.8,2.8,0s0.8,2,0,2.8l-7.6,7.6
		C731.3,334.1,730.8,334.3,730.3,334.3z" style="fill:#1F3250;"/>
</g>
<path d="M677.4,632.2l-12.6-60c-1.8-8.6-9.3-14.8-18.1-15H352.8c-8.8,0.2-16.3,6.4-18.1,15l-12.6,60H677.4z" style="fill:#0C776D;"/>
<path d="M301.9,357.3h396c11,0,20,9,20,20v182c0,3.3-2.7,6-6,6h-424c-3.3,0-6-2.7-6-6v-182
	C281.9,366.3,290.8,357.3,301.9,357.3L301.9,357.3z" style="fill:#0C776D;stroke:#0C776D;stroke-width:6;stroke-linecap:round;stroke-linejoin:round;"/>
<path d="M233.8,627.2h532l0,0v14.6c0,6.6-5.4,12-12,12h-508c-6.6,0-12-5.4-12-12V627.2L233.8,627.2z" style="fill:#0C776D;"/>
<path d="M245.8,299.8h508c6.6,0,12,5.4,12,12v4l0,0h-532l0,0v-4C233.8,305.1,239.1,299.8,245.8,299.8z" style="opacity:0.86;fill:#36B2A0;enable-background:new    ;"/>
<g>
	<path d="M753.8,656.8h-508c-8.3,0-15-6.7-15-15v-330c0-8.3,6.7-15,15-15h508c8.3,0,15,6.7,15,15v330
		C768.8,650,762,656.8,753.8,656.8z M245.8,302.8c-5,0-9,4-9,9v330c0,5,4,9,9,9h508c5,0,9-4,9-9v-330c0-5-4-9-9-9H245.8z" style="fill:#1F3250;"/>
</g>
<path d="M301.9,347.3h396c11,0,20,9,20,20v182c0,3.3-2.7,6-6,6h-424c-3.3,0-6-2.7-6-6v-182
	C281.9,356.3,290.8,347.3,301.9,347.3L301.9,347.3z" style="fill:#7DD9D6;"/>
<path d="M281.9,407.9h436l0,0v141.4c0,3.3-2.7,6-6,6h-424c-3.3,0-6-2.7-6-6V407.9L281.9,407.9z" style="opacity:0.64;fill:#32B94D;enable-background:new    ;"/>
<g>
	<path d="M711.9,558.3h-424c-5,0-9-4-9-9v-182c0-12.7,10.3-23,23-23l0,0h396c12.7,0,23,10.3,23,23v182
		C720.9,554.3,716.8,558.3,711.9,558.3z M301.9,350.3c-9.4,0-17,7.6-17,17v182c0,1.7,1.3,3,3,3h424c1.7,0,3-1.3,3-3v-182
		c0-9.4-7.6-17-17-17H301.9z" style="fill:#1F3250;"/>
</g>
<path d="M659.9,667.2H339.6c-4.4,0-8-3.6-8-8c0-0.6,0.1-1.1,0.2-1.7l17.3-82c0.8-3.7,4-6.3,7.8-6.3h285.7
	c3.8,0,7,2.6,7.8,6.3l17.3,82c0.9,4.3-1.9,8.6-6.2,9.5C661,667.2,660.4,667.2,659.9,667.2z" style="fill:#0F8E85;"/>
<g>
	<path d="M347,662.6c-2.2,0-4-1.8-4-4v-69.3c0-2.2,1.8-4,4-4s4,1.8,4,4v69.3C351,660.8,349.2,662.6,347,662.6z" style="fill:#0C776D;"/>
</g>
<g>
	<path d="M652,665.9c-2.2,0-4-1.8-4-4v-82.2c0-2.2,1.8-4,4-4s4,1.8,4,4v82.2C656,664.1,654.2,665.9,652,665.9z" style="fill:#0C776D;"/>
</g>
<g>
	<path d="M365,665.9c-2.2,0-4-1.8-4-4v-92.7c0-2.2,1.8-4,4-4s4,1.8,4,4v92.7C369,664.1,367.2,665.9,365,665.9z" style="fill:#0C776D;"/>
</g>
<g>
	<path d="M381.9,665.9c-2.2,0-4-1.8-4-4v-92.7c0-2.2,1.8-4,4-4s4,1.8,4,4v92.7C385.9,664.1,384.1,665.9,381.9,665.9z" style="fill:#0C776D;"/>
</g>
<g>
	<path d="M398.8,665.9c-2.2,0-4-1.8-4-4v-92.7c0-2.2,1.8-4,4-4s4,1.8,4,4v92.7C402.8,664.1,401,665.9,398.8,665.9z" style="fill:#0C776D;"/>
</g>
<g>
	<path d="M415.6,665.9c-2.2,0-4-1.8-4-4v-92.7c0-2.2,1.8-4,4-4s4,1.8,4,4v92.7C419.6,664.1,417.8,665.9,415.6,665.9z" style="fill:#0C776D;"/>
</g>
<g>
	<path d="M432.5,665.9c-2.2,0-4-1.8-4-4v-92.7c0-2.2,1.8-4,4-4s4,1.8,4,4v92.7C436.5,664.1,434.7,665.9,432.5,665.9z" style="fill:#0C776D;"/>
</g>
<g>
	<path d="M449.4,665.9c-2.2,0-4-1.8-4-4v-92.7c0-2.2,1.8-4,4-4s4,1.8,4,4v92.7C453.4,664.1,451.6,665.9,449.4,665.9z" style="fill:#0C776D;"/>
</g>
<g>
	<path d="M466.2,665.9c-2.2,0-4-1.8-4-4v-92.7c0-2.2,1.8-4,4-4s4,1.8,4,4v92.7C470.2,664.1,468.5,665.9,466.2,665.9z" style="fill:#0C776D;"/>
</g>
<g>
	<path d="M483.1,665.9c-2.2,0-4-1.8-4-4v-92.7c0-2.2,1.8-4,4-4s4,1.8,4,4v92.7C487.1,664.1,485.3,665.9,483.1,665.9z" style="fill:#0C776D;"/>
</g>
<g>
	<path d="M500,665.9c-2.2,0-4-1.8-4-4v-92.7c0-2.2,1.8-4,4-4s4,1.8,4,4v92.7C504,664.1,502.2,665.9,500,665.9z" style="fill:#0C776D;"/>
</g>
<g>
	<path d="M516.9,665.9c-2.2,0-4-1.8-4-4v-92.7c0-2.2,1.8-4,4-4s4,1.8,4,4v92.7C520.9,664.1,519.1,665.9,516.9,665.9z" style="fill:#0C776D;"/>
</g>
<g>
	<path d="M533.8,665.9c-2.2,0-4-1.8-4-4v-92.7c0-2.2,1.8-4,4-4s4,1.8,4,4v92.7C537.8,664.1,536,665.9,533.8,665.9z" style="fill:#0C776D;"/>
</g>
<g>
	<path d="M550.6,665.9c-2.2,0-4-1.8-4-4v-92.7c0-2.2,1.8-4,4-4s4,1.8,4,4v92.7C554.6,664.1,552.8,665.9,550.6,665.9z" style="fill:#0C776D;"/>
</g>
<g>
	<path d="M567.5,665.9c-2.2,0-4-1.8-4-4v-92.7c0-2.2,1.8-4,4-4s4,1.8,4,4v92.7C571.5,664.1,569.7,665.9,567.5,665.9z" style="fill:#0C776D;"/>
</g>
<g>
	<path d="M584.4,665.9c-2.2,0-4-1.8-4-4v-92.7c0-2.2,1.8-4,4-4s4,1.8,4,4v92.7C588.4,664.1,586.6,665.9,584.4,665.9z" style="fill:#0C776D;"/>
</g>
<g>
	<path d="M601.2,665.9c-2.2,0-4-1.8-4-4v-92.7c0-2.2,1.8-4,4-4s4,1.8,4,4v92.7C605.2,664.1,603.5,665.9,601.2,665.9z" style="fill:#0C776D;"/>
</g>
<g>
	<path d="M618.1,665.9c-2.2,0-4-1.8-4-4v-92.7c0-2.2,1.8-4,4-4s4,1.8,4,4v92.7C622.1,664.1,620.3,665.9,618.1,665.9z" style="fill:#0C776D;"/>
</g>
<g>
	<path d="M635,665.9c-2.2,0-4-1.8-4-4v-92.7c0-2.2,1.8-4,4-4s4,1.8,4,4v92.7C639,664.1,637.2,665.9,635,665.9z" style="fill:#0C776D;"/>
</g>
<path d="M664.8,643.6c-1.4,1.1-3.1,1.7-4.9,1.7H339.6c-1.8,0-3.5-0.6-4.9-1.7l-3,14c-0.9,4.3,1.9,8.6,6.2,9.5
	c0.5,0.1,1.1,0.2,1.7,0.2h320.3c4.4,0,8-3.6,8-8c0-0.6-0.1-1.1-0.2-1.7L664.8,643.6z" style="fill:#0C776D;"/>
<g>
	<path d="M339.6,670.2c-2.9,0-5.7-1.1-7.8-3.2c-2.1-2.1-3.2-4.8-3.2-7.8c0-0.8,0.1-1.5,0.2-2.3l17.3-82
		c1.1-5.1,5.6-8.7,10.8-8.7h285.7c5.2,0,9.7,3.7,10.8,8.7l17.3,82c1.3,5.9-2.6,11.8-8.5,13c-0.7,0.2-1.5,0.2-2.3,0.2H339.6
		C339.6,670.2,339.6,670.2,339.6,670.2z M356.9,572.2c-2.4,0-4.4,1.7-4.9,4l-17.3,82c-0.1,0.3-0.1,0.7-0.1,1c0,1.3,0.5,2.6,1.5,3.5
		s2.2,1.5,3.5,1.5h320.3c0.3,0,0.7,0,1-0.1c2.7-0.6,4.4-3.2,3.9-5.9l-17.3-82c-0.5-2.3-2.5-4-4.9-4H356.9z" style="fill:#1F3250;"/>
</g>
<path d="M361.9,411.3h276c6.6,0,12,5.4,12,12v56c0,6.6-5.4,12-12,12h-276c-6.6,0-12-5.4-12-12v-56
	C349.9,416.7,355.2,411.3,361.9,411.3z" style="fill:#0F8E85;"/>
<path d="M637.9,411.3h-276c-6.6,0-12,5.4-12,12v15c0-6.6,5.4-12,12-12l0,0h276c6.6,0,12,5.4,12,12l0,0v-15
	C649.9,416.7,644.5,411.3,637.9,411.3z" style="fill:#0C776D;"/>
<g>
	<path d="M637.9,494.3h-276c-8.3,0-15-6.7-15-15v-56c0-8.3,6.7-15,15-15h276c8.3,0,15,6.7,15,15v56
		C652.9,487.6,646.1,494.3,637.9,494.3z M361.9,414.3c-5,0-9,4-9,9v56c0,5,4,9,9,9h276c5,0,9-4,9-9v-56c0-5-4-9-9-9H361.9z" style="fill:#1F3250;"/>
</g>
<circle cx="391.3" cy="631.9" r="18.2" style="fill:#0C776D;"/>
<g>
	<path d="M391.3,646.2c-7.9,0-14.3-6.4-14.3-14.3s6.4-14.3,14.3-14.3s14.3,6.4,14.3,14.3S399.2,646.2,391.3,646.2z
		 M391.3,623.6c-4.6,0-8.3,3.7-8.3,8.3s3.7,8.3,8.3,8.3s8.3-3.7,8.3-8.3S395.9,623.6,391.3,623.6z" style="fill:#1F3250;"/>
</g>
<circle cx="608.3" cy="631.9" r="18.2" style="fill:#0C776D;"/>
<g>
	<path d="M608.3,646.2c-7.9,0-14.3-6.4-14.3-14.3s6.4-14.3,14.3-14.3s14.3,6.4,14.3,14.3S616.2,646.2,608.3,646.2z
		 M608.3,623.6c-4.6,0-8.3,3.7-8.3,8.3s3.7,8.3,8.3,8.3s8.3-3.7,8.3-8.3S612.9,623.6,608.3,623.6z" style="fill:#1F3250;"/>
</g>
<circle cx="450.9" cy="601.3" r="14.8" style="fill:#0C776D;"/>
<g>
	<path d="M450.9,613.5c-6.7,0-12.2-5.5-12.2-12.2c0-6.7,5.5-12.2,12.2-12.2s12.2,5.5,12.2,12.2
		C463.1,608,457.6,613.5,450.9,613.5z M450.9,595.1c-3.4,0-6.2,2.8-6.2,6.2c0,3.4,2.8,6.2,6.2,6.2s6.2-2.8,6.2-6.2
		C457.1,597.9,454.3,595.1,450.9,595.1z" style="fill:#1F3250;"/>
</g>
<circle cx="547.9" cy="601.3" r="14.8" style="fill:#0C776D;"/>
<g>
	<path d="M547.9,613.5c-6.7,0-12.2-5.5-12.2-12.2c0-6.7,5.5-12.2,12.2-12.2s12.2,5.5,12.2,12.2
		C560.1,608,554.6,613.5,547.9,613.5z M547.9,595.1c-3.4,0-6.2,2.8-6.2,6.2c0,3.4,2.8,6.2,6.2,6.2s6.2-2.8,6.2-6.2
		C554.1,597.9,551.3,595.1,547.9,595.1z" style="fill:#1F3250;"/>
</g>
<circle cx="403.9" cy="451.3" r="28.7" style="fill:#1F3250;"/>
<defs>
	<filter id="Adobe_OpacityMaskFilter" filterUnits="userSpaceOnUse" x="369" y="416.4" width="69.8" height="69.8">
		<feColorMatrix type="matrix" values="1 0 0 0 0  0 1 0 0 0  0 0 1 0 0  0 0 0 1 0"/>
	</filter>
</defs>
<mask maskUnits="userSpaceOnUse" x="369" y="416.4" width="69.8" height="69.8" id="mask_1_">
	<circle cx="403.9" cy="451.3" r="26.5" style="filter:url(#Adobe_OpacityMaskFilter);"/>
</mask>
<g style="mask:url(#mask_1_);">
	<g>
		<path d="M403.9,486.2c-2.2,0-4-1.8-4-4v-61.8c0-2.2,1.8-4,4-4s4,1.8,4,4v61.8C407.9,484.4,406.1,486.2,403.9,486.2z" style="fill:#0C776D;"/>
	</g>
	<g>
		<path d="M434.8,455.3H373c-2.2,0-4-1.8-4-4s1.8-4,4-4h61.8c2.2,0,4,1.8,4,4S437,455.3,434.8,455.3z" style="fill:#0C776D;"/>
	</g>
	<g>
		<path d="M382.1,477.2c-1,0-2-0.4-2.8-1.2c-1.6-1.6-1.6-4.1,0-5.7l43.7-43.7c1.6-1.6,4.1-1.6,5.7,0
			c1.6,1.6,1.6,4.1,0,5.7L384.9,476C384.1,476.8,383.1,477.2,382.1,477.2z" style="fill:#0C776D;"/>
	</g>
	<g>
		<path d="M425.7,477.2c-1,0-2-0.4-2.8-1.2l-43.7-43.7c-1.6-1.6-1.6-4.1,0-5.7c1.6-1.6,4.1-1.6,5.7,0l43.7,43.7
			c1.6,1.6,1.6,4.1,0,5.7C427.8,476.8,426.8,477.2,425.7,477.2z" style="fill:#0C776D;"/>
	</g>
</g>
<circle cx="403.9" cy="451.3" r="17.4" style="fill:#0C776D;"/>
<g>
	<path d="M403.9,484c-18,0-32.7-14.7-32.7-32.7c0-18,14.7-32.7,32.7-32.7c18,0,32.7,14.7,32.7,32.7
		C436.6,469.4,421.9,484,403.9,484z M403.9,426.6c-13.6,0-24.7,11.1-24.7,24.7s11.1,24.7,24.7,24.7s24.7-11.1,24.7-24.7
		S417.5,426.6,403.9,426.6z" style="fill:#1F3250;"/>
</g>
<circle cx="595.6" cy="451.3" r="28.7" style="fill:#1F3250;"/>
<defs>
	<filter id="Adobe_OpacityMaskFilter_1_" filterUnits="userSpaceOnUse" x="560.7" y="416.4" width="69.8" height="69.8">
		<feColorMatrix type="matrix" values="1 0 0 0 0  0 1 0 0 0  0 0 1 0 0  0 0 0 1 0"/>
	</filter>
</defs>
<mask maskUnits="userSpaceOnUse" x="560.7" y="416.4" width="69.8" height="69.8" id="mask-2_1_">
	<circle cx="595.6" cy="451.3" r="26.5" style="filter:url(#Adobe_OpacityMaskFilter_1_);"/>
</mask>
<g style="mask:url(#mask-2_1_);">
	<g>
		<path d="M595.6,486.2c-2.2,0-4-1.8-4-4v-61.8c0-2.2,1.8-4,4-4s4,1.8,4,4v61.8C599.6,484.4,597.8,486.2,595.6,486.2z" style="fill:#0C776D;"/>
	</g>
	<g>
		<path d="M626.5,455.3h-61.8c-2.2,0-4-1.8-4-4s1.8-4,4-4h61.8c2.2,0,4,1.8,4,4S628.7,455.3,626.5,455.3z" style="fill:#0C776D;"/>
	</g>
	<g>
		<path d="M573.8,477.2c-1,0-2-0.4-2.8-1.2c-1.6-1.6-1.6-4.1,0-5.7l43.7-43.7c1.6-1.6,4.1-1.6,5.7,0
			c1.6,1.6,1.6,4.1,0,5.7L576.6,476C575.8,476.8,574.8,477.2,573.8,477.2z" style="fill:#0C776D;"/>
	</g>
	<g>
		<path d="M617.4,477.2c-1,0-2-0.4-2.8-1.2l-43.7-43.7c-1.6-1.6-1.6-4.1,0-5.7c1.6-1.6,4.1-1.6,5.7,0l43.7,43.7
			c1.6,1.6,1.6,4.1,0,5.7C619.5,476.8,618.5,477.2,617.4,477.2z" style="fill:#0C776D;"/>
	</g>
</g>
<circle cx="595.6" cy="451.3" r="17.4" style="fill:#0C776D;"/>
<g>
	<path d="M595.6,484c-18,0-32.7-14.7-32.7-32.7c0-18,14.7-32.7,32.7-32.7s32.7,14.7,32.7,32.7
		C628.3,469.4,613.6,484,595.6,484z M595.6,426.6c-13.6,0-24.7,11.1-24.7,24.7S582,476,595.6,476c13.6,0,24.7-11.1,24.7-24.7
		S609.2,426.6,595.6,426.6z" style="fill:#1F3250;"/>
</g>
<path d="M452.6,425.1h94.2c3.3,0,6,2.7,6,6v36c0,3.3-2.7,6-6,6h-94.2c-3.3,0-6-2.7-6-6v-36
	C446.6,427.8,449.3,425.1,452.6,425.1z" style="fill:#F9B978;"/>
<circle cx="265.4" cy="620.6" r="15.2" style="fill:#0C776D;"/>
<g>
	<path d="M265.4,633.1c-6.9,0-12.5-5.6-12.5-12.5s5.6-12.5,12.5-12.5s12.5,5.6,12.5,12.5S272.3,633.1,265.4,633.1z
		 M265.4,612.1c-4.7,0-8.5,3.8-8.5,8.5s3.8,8.5,8.5,8.5s8.5-3.8,8.5-8.5S270.1,612.1,265.4,612.1z" style="fill:#1F3250;"/>
</g>
<g>
	<path d="M269.2,626.4c-0.5,0-1-0.2-1.4-0.6l-7.6-7.6c-0.8-0.8-0.8-2,0-2.8s2-0.8,2.8,0l7.6,7.6c0.8,0.8,0.8,2,0,2.8
		C270.3,626.2,269.8,626.4,269.2,626.4z" style="fill:#1F3250;"/>
</g>
<g>
	<path d="M261.6,626.4c-0.5,0-1-0.2-1.4-0.6c-0.8-0.8-0.8-2,0-2.8l7.6-7.6c0.8-0.8,2-0.8,2.8,0s0.8,2,0,2.8l-7.6,7.6
		C262.7,626.2,262.2,626.4,261.6,626.4z" style="fill:#1F3250;"/>
</g>
<circle cx="734.1" cy="620.6" r="15.2" style="fill:#0C776D;"/>
<g>
	<path d="M734.1,633.1c-6.9,0-12.5-5.6-12.5-12.5s5.6-12.5,12.5-12.5s12.5,5.6,12.5,12.5S740.9,633.1,734.1,633.1z
		 M734.1,612.1c-4.7,0-8.5,3.8-8.5,8.5s3.8,8.5,8.5,8.5s8.5-3.8,8.5-8.5S738.7,612.1,734.1,612.1z" style="fill:#1F3250;"/>
</g>
<g>
	<path d="M737.9,626.4c-0.5,0-1-0.2-1.4-0.6l-7.6-7.6c-0.8-0.8-0.8-2,0-2.8s2-0.8,2.8,0l7.6,7.6c0.8,0.8,0.8,2,0,2.8
		C738.9,626.2,738.4,626.4,737.9,626.4z" style="fill:#1F3250;"/>
</g>
<g>
	<path d="M730.3,626.4c-0.5,0-1-0.2-1.4-0.6c-0.8-0.8-0.8-2,0-2.8l7.6-7.6c0.8-0.8,2-0.8,2.8,0s0.8,2,0,2.8l-7.6,7.6
		C731.3,626.2,730.8,626.4,730.3,626.4z" style="fill:#1F3250;"/>
</g>
<circle cx="499.8" cy="594.7" r="10.2" style="fill:#0C776D;"/>
<g>
	<path d="M499.8,603.3c-4.7,0-8.6-3.8-8.6-8.6s3.8-8.6,8.6-8.6s8.6,3.8,8.6,8.6S504.5,603.3,499.8,603.3z M499.8,589.2
		c-3.1,0-5.6,2.5-5.6,5.6c0,3.1,2.5,5.6,5.6,5.6c3.1,0,5.6-2.5,5.6-5.6C505.3,591.7,502.8,589.2,499.8,589.2z" style="fill:#1F3250;"/>
</g>
<g>
	<path d="M502.9,596.2h-6.2c-0.8,0-1.5-0.7-1.5-1.5s0.7-1.5,1.5-1.5h6.2c0.8,0,1.5,0.7,1.5,1.5S503.7,596.2,502.9,596.2
		z" style="fill:#1F3250;"/>
</g>
<g>
	<path d="M499.8,599.3c-0.8,0-1.5-0.7-1.5-1.5v-6.2c0-0.8,0.7-1.5,1.5-1.5s1.5,0.7,1.5,1.5v6.2
		C501.2,598.7,500.6,599.3,499.8,599.3z" style="fill:#1F3250;"/>
</g>
<path d="M446.6,431.1v36c0,3.3,2.7,6,6,6l0,0h36.1c4-15.8,3.6-32.4-1.3-48h-34.9C449.3,425.1,446.6,427.8,446.6,431.1z" style="fill:#1F3250;"/>
<path d="M540.1,473.1h6.7c3.3,0,6-2.7,6-6l0,0v-36c0-3.3-2.7-6-6-6h-4.8C534.7,440.1,534,457.6,540.1,473.1L540.1,473.1
	z" style="fill:#1F3250;"/>
<path d="M452.6,426.1h94.2c3.3,0,6,2.7,6,6v34c0,3.3-2.7,6-6,6h-94.2c-3.3,0-6-2.7-6-6v-34
	C446.6,428.8,449.3,426.1,452.6,426.1z" style="opacity:0.51;fill:#7DB9F9;enable-background:new    ;"/>
<polygon points="479,472.1 524.7,426.1 505.9,426.1 460.2,472.1 " style="opacity:0.43;fill:#FFFFFF;enable-background:new    ;"/>
<polygon points="498.7,472.1 544.3,426.1 535,426.1 489.3,472.1 " style="opacity:0.43;fill:#FFFFFF;enable-background:new    ;"/>
<g>
	<path d="M546.9,476.1h-94.2c-5,0-9-4-9-9v-36c0-5,4-9,9-9h94.2c5,0,9,4,9,9v36C555.9,472.1,551.8,476.1,546.9,476.1z
		 M452.6,428.1c-1.7,0-3,1.3-3,3v36c0,1.7,1.3,3,3,3h94.2c1.7,0,3-1.3,3-3v-36c0-1.7-1.3-3-3-3H452.6z" style="fill:#1F3250;"/>
</g>
<g style="opacity:0.36;enable-background:new    ;">
	<path d="M572.5,513.6h-39.5c-1.7,0-3-1.3-3-3s1.3-3,3-3h39.5c1.7,0,3,1.3,3,3S574.2,513.6,572.5,513.6z" style="fill:#1F3250;"/>
</g>
<g style="opacity:0.36;enable-background:new    ;">
	<path d="M521.1,513.6H427c-1.7,0-3-1.3-3-3s1.3-3,3-3h94.1c1.7,0,3,1.3,3,3S522.8,513.6,521.1,513.6z" style="fill:#1F3250;"/>
</g>
<g style="opacity:0.36;enable-background:new    ;">
	<path d="M572.5,530.2H427c-1.7,0-3-1.3-3-3s1.3-3,3-3h145.6c1.7,0,3,1.3,3,3S574.2,530.2,572.5,530.2z" style="fill:#1F3250;"/>
</g>
<path d="M332.7,359.2h30.5c3.4,0,6.1,2.7,6.1,6.1v30.5c0,3.4-2.7,6.1-6.1,6.1h-30.5c-3.4,0-6.1-2.7-6.1-6.1v-30.5
	C326.6,361.9,329.4,359.2,332.7,359.2z" style="fill:#6DD2B9;"/>
<path d="M352.1,386.5h-10.3l-1.8,5h-4.2l8.8-24.6h4.7l8.8,24.6h-4.2L352.1,386.5z M346.9,371.7l-4,11.4h8L346.9,371.7z
	" style="fill:#32B94D;"/>
<path d="M233.8,634.2l-7.1-6.7c-1.9-1.9-2.9-4.4-2.9-7.1v-93.8c-0.1-3.1,1.3-6,3.8-7.8l6.2-4.2V634.2z" style="fill:#0C776D;"/>
<g>
	<path d="M672.9,371.6H365c-1.7,0-3-1.3-3-3s1.3-3,3-3h307.9c1.7,0,3,1.3,3,3S674.5,371.6,672.9,371.6z" style="fill:#6DD2B9;"/>
</g>
<g>
	<path d="M672.9,383.6H365c-1.7,0-3-1.3-3-3s1.3-3,3-3h307.9c1.7,0,3,1.3,3,3S674.5,383.6,672.9,383.6z" style="fill:#6DD2B9;"/>
</g>
<g>
	<path d="M672.9,395.6H365c-1.7,0-3-1.3-3-3s1.3-3,3-3h307.9c1.7,0,3,1.3,3,3S674.5,395.6,672.9,395.6z" style="fill:#6DD2B9;"/>
</g>
<g>
	<path d="M233.8,637.2c-0.7,0-1.5-0.3-2-0.8l-7.1-6.7c-2.5-2.5-3.9-5.9-3.8-9.3l0-93.7c-0.1-4,1.7-7.8,5-10.2
		c0,0,0.1-0.1,0.1-0.1l6.2-4.2c0.9-0.6,2.1-0.7,3.1-0.2c1,0.5,1.6,1.5,1.6,2.6v119.5c0,1.2-0.7,2.3-1.8,2.8
		C234.6,637.1,234.2,637.2,233.8,637.2z M229.3,521.3c-1.6,1.2-2.6,3.2-2.5,5.3l0,93.9c0,1.9,0.7,3.7,2,5l2,1.9v-107L229.3,521.3z" style="fill:#1F3250;"/>
</g>
</svg>